<svg xmlns="http://www.w3.org/2000/svg" version="1.1" xmlns:xlink="http://www.w3.org/1999/xlink" xmlns:svgjs="http://svgjs.dev/svgjs" viewBox="0 0 8.443003448610053 9.53664412719326"><g transform="matrix(1,0,0,1,0.7474874420784641,7.014656685114796)"><rect width="9.53664412719326" height="9.53664412719326" x="-1.2943077813700672" y="-7.014656685114796" fill="#8c1627"></rect><g><path d=" M 0.3405 1.332 Q 0.297 1.332 0.297 1.2705 Q 0.297 1.2585 0.2985 1.24425 Q 0.3 1.23 0.303 1.215 Q 0.312 1.173 0.3345 1.1055 Q 0.357 1.038 0.387 0.96225 Q 0.417 0.8865000000000001 0.44775000000000004 0.81675 Q 0.47850000000000004 0.747 0.5025000000000001 0.702 Q 0.5235 0.6599999999999999 0.55125 0.5985 Q 0.579 0.537 0.6075 0.46799999999999997 Q 0.636 0.399 0.65925 0.33299999999999996 Q 0.6825 0.267 0.6960000000000001 0.21599999999999997 Q 0.657 0.29999999999999993 0.60975 0.36675 Q 0.5625 0.4335 0.5085000000000001 0.492 Q 0.47700000000000004 0.525 0.43275 0.5685 Q 0.3885 0.612 0.33825 0.6525 Q 0.28800000000000003 0.6930000000000001 0.23925000000000002 0.72 Q 0.1905 0.747 0.1515 0.747 Q 0.025500000000000002 0.747 0.0135 0.6495 L 0.0135 0.6375 Q 0.0135 0.612 0.024 0.6075 Q 0.027 0.606 0.03 0.606 Q 0.045 0.606 0.045 0.627 Q 0.045 0.642 0.05025 0.6585 Q 0.0555 0.675 0.07200000000000001 0.675 Q 0.093 0.675 0.1395 0.663 Q 0.186 0.651 0.243 0.618 Q 0.315 0.5775 0.41175 0.49275 Q 0.5085000000000001 0.40800000000000003 0.627 0.25349999999999995 Q 0.6435 0.22950000000000004 0.6585 0.2025 Q 0.6735 0.1755 0.6885 0.14849999999999997 Q 0.708 0.11099999999999999 0.72675 0.0794999999999999 Q 0.7455 0.04800000000000004 0.768 0.03750000000000009 Q 0.7875 0.030000000000000027 0.7995 0.030000000000000027 Q 0.8280000000000001 0.030000000000000027 0.84375 0.05325000000000002 Q 0.8595 0.07650000000000001 0.8595 0.11699999999999999 Q 0.8595 0.13649999999999995 0.855 0.16200000000000003 Q 0.8505 0.1845 0.8295 0.237 Q 0.81 0.2865 0.7815 0.34875 Q 0.753 0.41100000000000003 0.7185 0.48150000000000004 L 0.651 0.6165 Q 0.6405 0.6405000000000001 0.62625 0.66525 Q 0.612 0.69 0.6 0.7155 L 0.54 0.831 Q 0.5265 0.861 0.50325 0.9097500000000001 Q 0.48 0.9585 0.4575 1.00875 Q 0.435 1.059 0.42 1.095 Q 0.40800000000000003 1.1235 0.39225 1.16025 Q 0.3765 1.197 0.36375 1.227 Q 0.35100000000000003 1.2570000000000001 0.34800000000000003 1.2675 Q 0.3435 1.281 0.3405 1.287 Q 0.3375 1.293 0.3375 1.2945 L 0.35100000000000003 1.2690000000000001 Q 0.354 1.266 0.35925 1.25475 Q 0.3645 1.2435 0.372 1.2255 Q 0.3765 1.2165 0.3825 1.203 Q 0.3885 1.1895 0.3945 1.1745 L 0.47850000000000004 0.99 Q 0.4965 0.9510000000000001 0.516 0.91125 Q 0.5355 0.8714999999999999 0.555 0.8295 Q 0.597 0.7455 0.642 0.6615 Q 0.687 0.5775 0.735 0.5025 Q 0.807 0.39 0.867 0.30599999999999994 Q 0.927 0.22199999999999998 0.9825 0.16649999999999998 Q 1.0965 0.05400000000000005 1.2165 0.05400000000000005 Q 1.302 0.05400000000000005 1.36725 0.10349999999999993 Q 1.4325 0.15300000000000002 1.46925 0.24 Q 1.506 0.32699999999999996 1.506 0.44099999999999995 Q 1.506 0.492 1.49625 0.54375 Q 1.4865 0.5955 1.4685000000000001 0.6465000000000001 Q 1.431 0.747 1.36725 0.8422499999999999 Q 1.3035 0.9375 1.215 1.023 Q 1.173 1.065 1.12725 1.101 Q 1.0815000000000001 1.137 1.032 1.1685 Q 0.93 1.233 0.82575 1.26675 Q 0.7215 1.3005 0.6285000000000001 1.3005 Q 0.558 1.3005 0.513 1.281 Q 0.4665 1.2615 0.4515 1.2495 Q 0.4365 1.2315 0.4365 1.221 Q 0.4365 1.2105 0.4455 1.2105 Q 0.4545 1.2105 0.4665 1.218 Q 0.47850000000000004 1.227 0.5175 1.23225 Q 0.5565 1.2375 0.6105 1.2375 Q 0.687 1.2375 0.77025 1.20075 Q 0.8535 1.164 0.9345 1.104 Q 1.0155 1.044 1.0845 0.9735 Q 1.1535 0.903 1.1985000000000001 0.837 Q 1.293 0.6975 1.3425 0.57225 Q 1.3920000000000001 0.44699999999999995 1.3920000000000001 0.34950000000000003 Q 1.3920000000000001 0.24 1.3485 0.18225000000000002 Q 1.305 0.12450000000000006 1.221 0.12450000000000006 Q 1.185 0.12450000000000006 1.14525 0.14549999999999996 Q 1.1055 0.16649999999999998 1.0665 0.1995 Q 1.0275 0.23250000000000004 0.9945 0.26849999999999996 Q 0.9615 0.3045 0.9375 0.3345 Q 0.8085 0.507 0.68775 0.6930000000000001 Q 0.5670000000000001 0.879 0.483 1.0875 Q 0.47400000000000003 1.1115 0.45975 1.152 Q 0.4455 1.1925 0.42675 1.2337500000000001 Q 0.40800000000000003 1.275 0.38625 1.3035 Q 0.3645 1.332 0.3405 1.332 M 1.7655183105468752 0.483 Q 1.7460183105468752 0.483 1.732518310546875 0.47024999999999995 Q 1.7190183105468753 0.4575 1.7190183105468753 0.43799999999999994 Q 1.7190183105468753 0.4125 1.7370183105468753 0.39449999999999996 Q 1.7550183105468753 0.37649999999999995 1.779018310546875 0.37649999999999995 Q 1.8030183105468751 0.37649999999999995 1.8157683105468752 0.393 Q 1.8285183105468752 0.4095 1.8255183105468753 0.43199999999999994 Q 1.8195183105468753 0.4545 1.8030183105468751 0.46875 Q 1.7865183105468752 0.483 1.7655183105468752 0.483 M 1.5225183105468751 1.1385 Q 1.4805183105468753 1.1385 1.4587683105468752 1.11075 Q 1.4370183105468752 1.083 1.4370183105468752 1.0335 Q 1.4370183105468752 1.0110000000000001 1.4415183105468752 0.984 Q 1.4475183105468752 0.9525 1.4647683105468752 0.90825 Q 1.4820183105468752 0.864 1.5045183105468751 0.819 Q 1.5270183105468753 0.774 1.545018310546875 0.7424999999999999 Q 1.5615183105468753 0.714 1.5847683105468753 0.6757500000000001 Q 1.6080183105468753 0.6375 1.6230183105468752 0.6105 Q 1.6350183105468752 0.591 1.6395183105468751 0.5865 Q 1.6500183105468753 0.5655 1.6785183105468753 0.55275 Q 1.7070183105468753 0.54 1.7310183105468753 0.54 Q 1.7625183105468754 0.54 1.7625183105468754 0.5595 Q 1.7625183105468754 0.5685 1.7535183105468752 0.582 Q 1.7250183105468753 0.6285 1.6867683105468751 0.6892499999999999 Q 1.6485183105468753 0.75 1.6125183105468752 0.8145 Q 1.5765183105468752 0.879 1.5532683105468752 0.93675 Q 1.5300183105468752 0.9944999999999999 1.5300183105468752 1.035 Q 1.5300183105468752 1.077 1.5615183105468753 1.077 Q 1.5825183105468752 1.077 1.6125183105468752 1.0545 Q 1.6425183105468752 1.032 1.6710183105468752 1.0035 Q 1.6995183105468752 0.975 1.7145183105468753 0.9585 L 1.7445183105468751 0.927 Q 1.7520183105468752 0.9195 1.7580183105468752 0.91125 Q 1.7640183105468752 0.903 1.7700183105468752 0.8955 Q 1.7745183105468754 0.888 1.7820183105468752 0.888 Q 1.8000183105468752 0.888 1.8000183105468752 0.909 Q 1.8000183105468752 0.9195 1.7925183105468752 0.927 Q 1.7760183105468752 0.948 1.7595183105468752 0.9675 Q 1.7430183105468753 0.987 1.7250183105468753 1.0065 Q 1.6995183105468752 1.0365 1.6680183105468753 1.06725 Q 1.6365183105468752 1.098 1.6005183105468752 1.11825 Q 1.5645183105468752 1.1385 1.5225183105468751 1.1385 M 1.5119941406250001 1.7745 Q 1.4969941406250002 1.7745 1.4812441406250003 1.74 Q 1.4654941406250002 1.7055 1.4654941406250002 1.6545 Q 1.4654941406250002 1.6425 1.4669941406250002 1.629 Q 1.4684941406250003 1.6155 1.4714941406250002 1.602 Q 1.4894941406250002 1.53 1.5209941406250003 1.44 Q 1.5854941406250003 1.2615 1.6859941406250003 1.0485 Q 1.7114941406250002 0.9975 1.7354941406250002 0.948 Q 1.7594941406250002 0.8985 1.7834941406250002 0.8505 Q 1.8314941406250003 0.756 1.8757441406250002 0.6735 Q 1.9199941406250003 0.591 1.9544941406250003 0.531 Q 2.0084941406250003 0.4425 2.052744140625 0.39674999999999994 Q 2.096994140625 0.351 2.1389941406250004 0.3315 Q 2.180994140625 0.31199999999999994 2.227494140625 0.30299999999999994 L 2.234994140625 0.3165 Q 2.213994140625 0.33599999999999997 2.190744140625 0.363 Q 2.167494140625 0.39 2.141994140625 0.4245 Q 2.0924941406250004 0.49050000000000005 2.0414941406250002 0.5715 Q 1.9904941406250003 0.6525 1.9379941406250003 0.741 Q 1.9124941406250002 0.786 1.8884941406250002 0.8302499999999999 Q 1.8644941406250002 0.8745 1.8404941406250002 0.918 Q 1.8014941406250002 0.9915 1.7669941406250003 1.0605 Q 1.8149941406250003 0.975 1.8622441406250003 0.89775 Q 1.9094941406250001 0.8205 1.9469941406250002 0.7695000000000001 Q 1.9994941406250002 0.7005 2.048994140625 0.6615 Q 2.098494140625 0.6224999999999999 2.132994140625 0.6224999999999999 Q 2.215494140625 0.6224999999999999 2.215494140625 0.717 Q 2.215494140625 0.7364999999999999 2.210994140625 0.762 Q 2.200494140625 0.8280000000000001 2.1629941406250004 0.9007499999999999 Q 2.1254941406250003 0.9735 2.0699941406250004 1.0365 Q 2.014494140625 1.0995 1.9477441406250002 1.13925 Q 1.8809941406250001 1.179 1.8089941406250003 1.179 Q 1.7819941406250002 1.179 1.7654941406250002 1.161 Q 1.7234941406250002 1.2435 1.6777441406250002 1.34025 Q 1.6319941406250003 1.437 1.5794941406250003 1.5585 Q 1.5644941406250001 1.6139999999999999 1.5509941406250003 1.66425 Q 1.5374941406250002 1.7145000000000001 1.5284941406250003 1.7535 Q 1.522494140625 1.7745 1.5119941406250001 1.7745 M 1.8089941406250003 1.137 Q 1.8569941406250003 1.137 1.9072441406250003 1.0965 Q 1.9574941406250002 1.056 2.001744140625 0.99375 Q 2.0459941406250004 0.9315 2.072994140625 0.867 Q 2.093994140625 0.813 2.1052441406250004 0.76875 Q 2.1164941406250004 0.7244999999999999 2.1164941406250004 0.702 Q 2.1164941406250004 0.6825 2.108994140625 0.6825 Q 2.0699941406250004 0.6825 1.9904941406250003 0.792 Q 1.9379941406250003 0.867 1.8869941406250001 0.94725 Q 1.8359941406250002 1.0275 1.7834941406250002 1.1280000000000001 Q 1.7909941406250003 1.137 1.8089941406250003 1.137 M 2.515518310546875 0.483 Q 2.496018310546875 0.483 2.482518310546875 0.47024999999999995 Q 2.469018310546875 0.4575 2.469018310546875 0.43799999999999994 Q 2.469018310546875 0.4125 2.487018310546875 0.39449999999999996 Q 2.505018310546875 0.37649999999999995 2.529018310546875 0.37649999999999995 Q 2.553018310546875 0.37649999999999995 2.565768310546875 0.393 Q 2.578518310546875 0.4095 2.575518310546875 0.43199999999999994 Q 2.569518310546875 0.4545 2.553018310546875 0.46875 Q 2.536518310546875 0.483 2.515518310546875 0.483 M 2.272518310546875 1.1385 Q 2.230518310546875 1.1385 2.208768310546875 1.11075 Q 2.187018310546875 1.083 2.187018310546875 1.0335 Q 2.187018310546875 1.0110000000000001 2.191518310546875 0.984 Q 2.197518310546875 0.9525 2.214768310546875 0.90825 Q 2.232018310546875 0.864 2.254518310546875 0.819 Q 2.277018310546875 0.774 2.295018310546875 0.7424999999999999 Q 2.311518310546875 0.714 2.334768310546875 0.6757500000000001 Q 2.358018310546875 0.6375 2.373018310546875 0.6105 Q 2.385018310546875 0.591 2.389518310546875 0.5865 Q 2.400018310546875 0.5655 2.428518310546875 0.55275 Q 2.457018310546875 0.54 2.481018310546875 0.54 Q 2.512518310546875 0.54 2.512518310546875 0.5595 Q 2.512518310546875 0.5685 2.503518310546875 0.582 Q 2.475018310546875 0.6285 2.436768310546875 0.6892499999999999 Q 2.398518310546875 0.75 2.362518310546875 0.8145 Q 2.326518310546875 0.879 2.303268310546875 0.93675 Q 2.280018310546875 0.9944999999999999 2.280018310546875 1.035 Q 2.280018310546875 1.077 2.311518310546875 1.077 Q 2.332518310546875 1.077 2.362518310546875 1.0545 Q 2.392518310546875 1.032 2.421018310546875 1.0035 Q 2.449518310546875 0.975 2.464518310546875 0.9585 L 2.494518310546875 0.927 Q 2.502018310546875 0.9195 2.508018310546875 0.91125 Q 2.514018310546875 0.903 2.520018310546875 0.8955 Q 2.524518310546875 0.888 2.532018310546875 0.888 Q 2.550018310546875 0.888 2.550018310546875 0.909 Q 2.550018310546875 0.9195 2.542518310546875 0.927 Q 2.526018310546875 0.948 2.5095183105468752 0.9675 Q 2.493018310546875 0.987 2.475018310546875 1.0065 Q 2.449518310546875 1.0365 2.418018310546875 1.06725 Q 2.386518310546875 1.098 2.350518310546875 1.11825 Q 2.314518310546875 1.1385 2.272518310546875 1.1385 M 2.779494140625 1.143 Q 2.726994140625 1.143 2.693244140625 1.1025 Q 2.659494140625 1.062 2.659494140625 1.005 Q 2.659494140625 0.9855 2.663994140625 0.966 Q 2.671494140625 0.9359999999999999 2.696994140625 0.90525 Q 2.722494140625 0.8745 2.741994140625 0.873 Q 2.744994140625 0.8714999999999999 2.750994140625 0.8714999999999999 Q 2.788494140625 0.8714999999999999 2.827494140625 0.852 Q 2.866494140625 0.8325 2.897994140625 0.8047500000000001 Q 2.929494140625 0.777 2.9444941406250003 0.753 Q 2.951994140625 0.738 2.951994140625 0.7304999999999999 Q 2.951994140625 0.717 2.933994140625 0.717 Q 2.918994140625 0.717 2.896494140625 0.726 Q 2.855994140625 0.7395 2.814744140625 0.768 Q 2.773494140625 0.7965 2.738994140625 0.8340000000000001 Q 2.714994140625 0.861 2.675994140625 0.90825 Q 2.636994140625 0.9555 2.598744140625 1.00725 Q 2.560494140625 1.059 2.534994140625 1.101 Q 2.525994140625 1.1175 2.512494140625 1.125 Q 2.498994140625 1.1325 2.485494140625 1.1325 Q 2.470494140625 1.1325 2.459244140625 1.12275 Q 2.447994140625 1.113 2.447994140625 1.0965 Q 2.447994140625 1.086 2.452494140625 1.0755 Q 2.456994140625 1.065 2.461494140625 1.053 Q 2.465994140625 1.041 2.471994140625 1.0275 Q 2.488494140625 0.9884999999999999 2.504994140625 0.94725 Q 2.521494140625 0.906 2.533494140625 0.879 Q 2.554494140625 0.8325 2.578494140625 0.7815 Q 2.602494140625 0.7304999999999999 2.633994140625 0.6675 Q 2.668494140625 0.6 2.716494140625 0.5145 Q 2.764494140625 0.42899999999999994 2.819244140625 0.34199999999999997 Q 2.8739941406250002 0.255 2.930244140625 0.1815 Q 2.986494140625 0.10799999999999987 3.0374941406250002 0.0645 Q 3.086994140625 0.020999999999999908 3.125244140625 0.01200000000000001 Q 3.163494140625 0.0029999999999998916 3.1889941406249998 0 L 3.196494140625 0.01200000000000001 Q 3.149994140625 0.06149999999999989 3.105744140625 0.11099999999999999 Q 3.0614941406250002 0.16049999999999998 3.016494140625 0.22199999999999998 Q 2.9444941406250003 0.3195 2.876244140625 0.42374999999999996 Q 2.807994140625 0.528 2.755494140625 0.6345000000000001 Q 2.740494140625 0.6675 2.723994140625 0.7005 Q 2.707494140625 0.7335 2.690994140625 0.765 Q 2.672994140625 0.7995 2.657244140625 0.8325 Q 2.641494140625 0.8654999999999999 2.626494140625 0.8985 Q 2.668494140625 0.8474999999999999 2.717994140625 0.7889999999999999 Q 2.7674941406249998 0.7304999999999999 2.820744140625 0.68475 Q 2.8739941406250002 0.639 2.923494140625 0.6285 Q 2.933994140625 0.6255 2.942244140625 0.6255 Q 2.950494140625 0.6255 2.959494140625 0.6255 Q 2.998494140625 0.6255 3.020244140625 0.64425 Q 3.041994140625 0.663 3.041994140625 0.6930000000000001 Q 3.041994140625 0.7335 3.0014941406249998 0.7875 Q 2.975994140625 0.819 2.932494140625 0.8445 Q 2.888994140625 0.87 2.841744140625 0.8865000000000001 Q 2.794494140625 0.903 2.755494140625 0.9075 Q 2.753994140625 0.9225 2.753994140625 0.9359999999999999 Q 2.753994140625 0.9495 2.753994140625 0.9615 Q 2.753994140625 1.0185 2.764494140625 1.05 Q 2.774994140625 1.0815 2.795994140625 1.0815 Q 2.809494140625 1.0815 2.8379941406249998 1.0695000000000001 Q 2.864994140625 1.0545 2.896494140625 1.0275 Q 2.927994140625 1.0005 2.963994140625 0.9585 Q 2.980494140625 0.942 2.993994140625 0.92625 Q 3.007494140625 0.9105 3.019494140625 0.8955 Q 3.023994140625 0.888 3.031494140625 0.888 Q 3.049494140625 0.888 3.049494140625 0.909 Q 3.049494140625 0.918 3.040494140625 0.927 Q 3.0254941406249998 0.9465 3.008244140625 0.966 Q 2.9909941406250002 0.9855 2.974494140625 1.0065 Q 2.957994140625 1.026 2.940744140625 1.0455 Q 2.923494140625 1.065 2.903994140625 1.0815 Q 2.875494140625 1.11 2.841744140625 1.1265 Q 2.807994140625 1.143 2.779494140625 1.143 M 3.335970703125 1.1445 Q 3.305970703125 1.1445 3.287220703125 1.122 Q 3.2684707031249998 1.0995 3.2684707031249998 1.059 Q 3.2684707031249998 1.0305 3.277470703125 0.9975 Q 3.280470703125 0.9855 3.293220703125 0.95625 Q 3.305970703125 0.927 3.319470703125 0.897 Q 3.323970703125 0.8895 3.326970703125 0.882 Q 3.283470703125 0.9390000000000001 3.230970703125 0.98325 Q 3.178470703125 1.0275 3.119970703125 1.0275 Q 3.068970703125 1.026 3.047970703125 0.99975 Q 3.026970703125 0.9735 3.026970703125 0.9359999999999999 Q 3.026970703125 0.894 3.045720703125 0.8445 Q 3.064470703125 0.7949999999999999 3.086970703125 0.7575000000000001 Q 3.125970703125 0.696 3.182220703125 0.6367499999999999 Q 3.238470703125 0.5775 3.302970703125 0.5385 Q 3.367470703125 0.49949999999999994 3.425970703125 0.49949999999999994 Q 3.4919707031250002 0.49949999999999994 3.545970703125 0.543 Q 3.559470703125 0.5535 3.564720703125 0.5655 Q 3.569970703125 0.5775 3.569970703125 0.5865 Q 3.569970703125 0.6 3.5624707031250002 0.609 Q 3.554970703125 0.618 3.544470703125 0.618 Q 3.527970703125 0.618 3.518970703125 0.594 Q 3.509970703125 0.5685 3.494970703125 0.5579999999999999 Q 3.479970703125 0.5475 3.461970703125 0.5475 Q 3.425970703125 0.5475 3.379470703125 0.5805 Q 3.332970703125 0.6135 3.287970703125 0.6615 Q 3.235470703125 0.714 3.195720703125 0.77625 Q 3.155970703125 0.8385 3.134970703125 0.8895 Q 3.115470703125 0.933 3.115470703125 0.9555 Q 3.115470703125 0.9765 3.131970703125 0.9765 Q 3.154470703125 0.9765 3.200970703125 0.9390000000000001 Q 3.2339707031250002 0.9135 3.272220703125 0.873 Q 3.310470703125 0.8325 3.344970703125 0.792 Q 3.379470703125 0.7515000000000001 3.398970703125 0.729 Q 3.406470703125 0.717 3.413220703125 0.7065 Q 3.419970703125 0.696 3.425970703125 0.6885 Q 3.442470703125 0.6659999999999999 3.476970703125 0.6659999999999999 Q 3.499470703125 0.6659999999999999 3.5152207031250002 0.6765 Q 3.530970703125 0.687 3.523470703125 0.7050000000000001 Q 3.518970703125 0.7125 3.511470703125 0.72675 Q 3.503970703125 0.741 3.493470703125 0.762 Q 3.473970703125 0.798 3.449970703125 0.846 Q 3.425970703125 0.894 3.404970703125 0.9359999999999999 Q 3.383970703125 0.978 3.373470703125 1.002 Q 3.3509707031250002 1.047 3.3509707031250002 1.0665 Q 3.3509707031250002 1.08 3.361470703125 1.08 Q 3.365970703125 1.08 3.372720703125 1.077 Q 3.379470703125 1.074 3.388470703125 1.0695000000000001 Q 3.415470703125 1.0545 3.446970703125 1.0275 Q 3.478470703125 1.0005 3.514470703125 0.9585 Q 3.530970703125 0.942 3.544470703125 0.92625 Q 3.557970703125 0.9105 3.569970703125 0.8955 Q 3.574470703125 0.888 3.581970703125 0.888 Q 3.599970703125 0.888 3.599970703125 0.909 Q 3.599970703125 0.9195 3.592470703125 0.927 Q 3.575970703125 0.948 3.559470703125 0.9675 Q 3.542970703125 0.987 3.524970703125 1.0065 Q 3.508470703125 1.026 3.491220703125 1.0455 Q 3.473970703125 1.065 3.454470703125 1.0815 Q 3.4214707031250002 1.1145 3.390720703125 1.1295 Q 3.359970703125 1.1445 3.335970703125 1.1445 M 4.1609868164062505 1.263 Q 4.03198681640625 1.263 3.95773681640625 1.18125 Q 3.88348681640625 1.0995 3.88348681640625 0.9585 Q 3.88348681640625 0.942 3.88423681640625 0.927 Q 3.88498681640625 0.912 3.88648681640625 0.8955 Q 3.90298681640625 0.753 3.97273681640625 0.618 Q 4.04248681640625 0.483 4.15948681640625 0.369 Q 4.09948681640625 0.357 4.02973681640625 0.33675 Q 3.95998681640625 0.3165 3.89848681640625 0.2865 Q 3.83698681640625 0.25649999999999995 3.79723681640625 0.21599999999999997 Q 3.75748681640625 0.1755 3.75748681640625 0.123 Q 3.75748681640625 0.08250000000000002 3.79648681640625 0.05774999999999997 Q 3.83548681640625 0.03299999999999992 3.89698681640625 0.03299999999999992 Q 3.94798681640625 0.03299999999999992 4.01473681640625 0.04949999999999988 Q 4.08148681640625 0.06600000000000006 4.14598681640625 0.09149999999999991 Q 4.21048681640625 0.11699999999999999 4.25098681640625 0.14400000000000002 Q 4.25698681640625 0.14849999999999997 4.26598681640625 0.15674999999999994 Q 4.27498681640625 0.16500000000000004 4.27498681640625 0.17699999999999994 Q 4.27498681640625 0.1875 4.26523681640625 0.19199999999999995 Q 4.25548681640625 0.1965 4.24798681640625 0.1905 Q 4.17448681640625 0.15149999999999997 4.07623681640625 0.129 Q 3.97798681640625 0.10650000000000004 3.88798681640625 0.10650000000000004 Q 3.83248681640625 0.10650000000000004 3.83248681640625 0.13349999999999995 Q 3.83248681640625 0.15749999999999997 3.86698681640625 0.19199999999999995 Q 3.92848681640625 0.249 4.01848681640625 0.2835 Q 4.10848681640625 0.31799999999999995 4.19698681640625 0.3345 Q 4.25098681640625 0.28800000000000003 4.30873681640625 0.25049999999999994 Q 4.36648681640625 0.21299999999999997 4.42798681640625 0.1845 Q 4.60348681640625 0.10799999999999987 4.82248681640625 0.10799999999999987 Q 4.91548681640625 0.11399999999999988 4.96723681640625 0.14400000000000002 Q 5.01898681640625 0.17399999999999993 5.01898681640625 0.22650000000000003 Q 5.01898681640625 0.279 4.96873681640625 0.3165 Q 4.91848681640625 0.354 4.82248681640625 0.375 Q 4.77748681640625 0.384 4.7249868164062505 0.39 Q 4.67248681640625 0.396 4.62448681640625 0.39825 Q 4.57648681640625 0.40049999999999997 4.54498681640625 0.40049999999999997 Q 4.48798681640625 0.40049999999999997 4.43098681640625 0.399 Q 4.37398681640625 0.39749999999999996 4.31698681640625 0.39149999999999996 Q 4.26898681640625 0.4335 4.22623681640625 0.48224999999999996 Q 4.18348681640625 0.531 4.14598681640625 0.588 Q 4.04698681640625 0.7455 4.01998681640625 0.9 Q 4.01398681640625 0.927 4.01173681640625 0.954 Q 4.00948681640625 0.981 4.00948681640625 1.008 Q 4.00948681640625 1.2135 4.17598681640625 1.2135 Q 4.22698681640625 1.2135 4.28998681640625 1.191 Q 4.40998681640625 1.1445 4.53148681640625 1.035 Q 4.55998681640625 1.0095 4.58473681640625 0.98175 Q 4.60948681640625 0.954 4.6304868164062505 0.9255 Q 4.7249868164062505 0.798 4.7249868164062505 0.6945 Q 4.7249868164062505 0.6675 4.71223681640625 0.65625 Q 4.6994868164062495 0.645 4.66948681640625 0.645 Q 4.63198681640625 0.645 4.58698681640625 0.6675 Q 4.50148681640625 0.7110000000000001 4.40098681640625 0.813 Q 4.37698681640625 0.837 4.35748681640625 0.86175 Q 4.33798681640625 0.8865000000000001 4.32148681640625 0.9105 Q 4.24498681640625 1.017 4.24498681640625 1.0875 Q 4.24498681640625 1.101 4.23898681640625 1.11225 Q 4.23298681640625 1.1235 4.22098681640625 1.1235 Q 4.20148681640625 1.1235 4.20148681640625 1.0935 Q 4.20148681640625 1.05 4.21873681640625 1.00275 Q 4.23598681640625 0.9555 4.25248681640625 0.918 Q 4.28248681640625 0.8625 4.32598681640625 0.80325 Q 4.36948681640625 0.744 4.42423681640625 0.6930000000000001 Q 4.47898681640625 0.642 4.54123681640625 0.6105 Q 4.60348681640625 0.579 4.66948681640625 0.579 Q 4.80298681640625 0.579 4.80298681640625 0.696 Q 4.80298681640625 0.8025 4.74898681640625 0.906 Q 4.69498681640625 1.0095 4.59598681640625 1.0935 Q 4.49998681640625 1.173 4.38598681640625 1.218 Q 4.27198681640625 1.263 4.1609868164062505 1.263 M 4.40398681640625 0.348 Q 4.47148681640625 0.348 4.54873681640625 0.34199999999999997 Q 4.62598681640625 0.33599999999999997 4.70323681640625 0.3225 Q 4.78048681640625 0.30899999999999994 4.84348681640625 0.28800000000000003 Q 4.85998681640625 0.2835 4.87723681640625 0.27749999999999997 Q 4.89448681640625 0.27149999999999996 4.90948681640625 0.264 Q 4.92148681640625 0.25649999999999995 4.94023681640625 0.24375000000000002 Q 4.9589868164062505 0.23099999999999998 4.9589868164062505 0.21899999999999997 Q 4.9589868164062505 0.2025 4.92673681640625 0.19499999999999995 Q 4.89448681640625 0.1875 4.83448681640625 0.1875 Q 4.58098681640625 0.1875 4.36948681640625 0.348 L 4.40398681640625 0.348 M 5.1329677734375 1.1445 Q 5.1029677734375 1.1445 5.0842177734375 1.122 Q 5.0654677734375 1.0995 5.0654677734375 1.059 Q 5.0654677734375 1.0305 5.0744677734375 0.9975 Q 5.0774677734375 0.9855 5.0902177734375 0.95625 Q 5.1029677734375 0.927 5.1164677734375 0.897 Q 5.1209677734375 0.8895 5.1239677734375 0.882 Q 5.0804677734375 0.9390000000000001 5.0279677734375 0.98325 Q 4.9754677734375 1.0275 4.9169677734375 1.0275 Q 4.8659677734375 1.026 4.8449677734375 0.99975 Q 4.8239677734375 0.9735 4.8239677734375 0.9359999999999999 Q 4.8239677734375 0.894 4.8427177734375 0.8445 Q 4.8614677734375 0.7949999999999999 4.8839677734375 0.7575000000000001 Q 4.9229677734375 0.696 4.9792177734375 0.6367499999999999 Q 5.0354677734375 0.5775 5.0999677734375 0.5385 Q 5.1644677734375 0.49949999999999994 5.2229677734375 0.49949999999999994 Q 5.2889677734375 0.49949999999999994 5.3429677734375005 0.543 Q 5.3564677734375 0.5535 5.3617177734375 0.5655 Q 5.3669677734375 0.5775 5.3669677734375 0.5865 Q 5.3669677734375 0.6 5.3594677734375 0.609 Q 5.3519677734375 0.618 5.3414677734375005 0.618 Q 5.3249677734375 0.618 5.3159677734375 0.594 Q 5.3069677734375 0.5685 5.2919677734375 0.5579999999999999 Q 5.2769677734375 0.5475 5.2589677734375 0.5475 Q 5.2229677734375 0.5475 5.1764677734375 0.5805 Q 5.1299677734374995 0.6135 5.0849677734375 0.6615 Q 5.0324677734375 0.714 4.9927177734375 0.77625 Q 4.9529677734375 0.8385 4.9319677734375 0.8895 Q 4.9124677734375 0.933 4.9124677734375 0.9555 Q 4.9124677734375 0.9765 4.9289677734375 0.9765 Q 4.9514677734375 0.9765 4.9979677734375 0.9390000000000001 Q 5.0309677734375 0.9135 5.0692177734375 0.873 Q 5.1074677734375005 0.8325 5.1419677734375 0.792 Q 5.1764677734375 0.7515000000000001 5.1959677734375 0.729 Q 5.2034677734375 0.717 5.2102177734375 0.7065 Q 5.2169677734375 0.696 5.2229677734375 0.6885 Q 5.2394677734375 0.6659999999999999 5.2739677734375 0.6659999999999999 Q 5.2964677734375 0.6659999999999999 5.3122177734375 0.6765 Q 5.3279677734375 0.687 5.3204677734375 0.7050000000000001 Q 5.3159677734375 0.7125 5.3084677734375 0.72675 Q 5.3009677734375 0.741 5.2904677734375 0.762 Q 5.2709677734375 0.798 5.2469677734375 0.846 Q 5.2229677734375 0.894 5.2019677734375 0.9359999999999999 Q 5.1809677734375 0.978 5.1704677734375 1.002 Q 5.1479677734375 1.047 5.1479677734375 1.0665 Q 5.1479677734375 1.08 5.1584677734375 1.08 Q 5.1629677734375 1.08 5.1697177734375 1.077 Q 5.1764677734375 1.074 5.1854677734375 1.0695000000000001 Q 5.2124677734375 1.0545 5.2439677734375 1.0275 Q 5.2754677734375 1.0005 5.3114677734375 0.9585 Q 5.3279677734375 0.942 5.3414677734375005 0.92625 Q 5.3549677734375 0.9105 5.3669677734375 0.8955 Q 5.3714677734375 0.888 5.3789677734375 0.888 Q 5.3969677734375 0.888 5.3969677734375 0.909 Q 5.3969677734375 0.9195 5.3894677734375005 0.927 Q 5.3729677734375 0.948 5.3564677734375 0.9675 Q 5.3399677734375 0.987 5.3219677734375 1.0065 Q 5.3054677734375 1.026 5.2882177734375 1.0455 Q 5.2709677734375 1.065 5.2514677734375 1.0815 Q 5.2184677734375 1.1145 5.1877177734375 1.1295 Q 5.1569677734375 1.1445 5.1329677734375 1.1445 M 5.365509521484375 1.4025 Q 5.328009521484375 1.4025 5.307759521484375 1.37325 Q 5.287509521484375 1.344 5.287509521484375 1.293 Q 5.287509521484375 1.281 5.289009521484375 1.266 Q 5.290509521484375 1.251 5.293509521484375 1.236 Q 5.295009521484375 1.233 5.295759521484375 1.22625 Q 5.296509521484375 1.2195 5.298009521484375 1.2135 Q 5.302509521484375 1.191 5.310009521484375 1.1565 Q 5.317509521484375 1.122 5.326509521484375 1.089 Q 5.340009521484375 1.032 5.364759521484375 0.96075 Q 5.389509521484375 0.8895 5.422509521484375 0.81 Q 5.448009521484375 0.75 5.473509521484375 0.69675 Q 5.499009521484375 0.6435 5.524509521484375 0.594 L 5.329509521484375 0.594 Q 5.305509521484375 0.594 5.305509521484375 0.5805 Q 5.305509521484375 0.5549999999999999 5.346009521484375 0.5549999999999999 L 5.545509521484375 0.5549999999999999 Q 5.583009521484375 0.489 5.623509521484375 0.42899999999999994 Q 5.664009521484375 0.369 5.712009521484375 0.31799999999999995 Q 5.739009521484375 0.2865 5.762259521484375 0.27374999999999994 Q 5.785509521484375 0.261 5.808759521484375 0.25575000000000003 Q 5.832009521484375 0.25049999999999994 5.860509521484375 0.24449999999999994 L 5.868009521484375 0.25649999999999995 Q 5.803509521484375 0.33599999999999997 5.752509521484375 0.40800000000000003 Q 5.701509521484375 0.48 5.658009521484375 0.5549999999999999 L 5.8665095214843745 0.5549999999999999 Q 5.8920095214843755 0.5549999999999999 5.8920095214843755 0.57 Q 5.8920095214843755 0.5775 5.880759521484375 0.58575 Q 5.869509521484375 0.594 5.851509521484375 0.594 L 5.635509521484375 0.594 Q 5.601009521484375 0.6555 5.568009521484375 0.7244999999999999 Q 5.535009521484375 0.7935 5.499009521484375 0.8745 Q 5.467509521484375 0.9435 5.442009521484375 1.02225 Q 5.416509521484375 1.101 5.402259521484375 1.1655 Q 5.388009521484375 1.23 5.388009521484375 1.2585 Q 5.388009521484375 1.32 5.418009521484375 1.32 Q 5.433009521484375 1.32 5.458509521484375 1.3035 Q 5.517009521484375 1.2675 5.562759521484375 1.22925 Q 5.608509521484375 1.191 5.650509521484375 1.1505 Q 5.680509521484375 1.122 5.721009521484375 1.07775 Q 5.761509521484375 1.0335 5.796009521484375 0.996 Q 5.803509521484375 0.9884999999999999 5.809509521484375 0.981 Q 5.815509521484375 0.9735 5.821509521484375 0.9675 L 5.847009521484375 0.9390000000000001 Q 5.853009521484375 0.933 5.860509521484375 0.933 Q 5.878509521484375 0.933 5.878509521484375 0.9510000000000001 Q 5.878509521484375 0.9585 5.869509521484375 0.9705 Q 5.860509521484375 0.984 5.851509521484375 0.993 L 5.833509521484375 1.0155 Q 5.769009521484375 1.0965 5.691009521484375 1.1775 Q 5.613009521484375 1.2585 5.529009521484375 1.326 Q 5.494509521484375 1.353 5.456259521484375 1.37775 Q 5.418009521484375 1.4025 5.365509521484375 1.4025 M 5.9340146484375 1.3545 Q 5.8710146484375 1.3545 5.8372646484375 1.3042500000000001 Q 5.8035146484375 1.254 5.8035146484375 1.1655 Q 5.8035146484375 1.1355 5.8080146484375 1.1025 Q 5.8185146484375 1.0185 5.8590146484375 0.9299999999999999 Q 5.8995146484375 0.8415 5.9685146484375 0.753 Q 6.0180146484375 0.6885 6.0795146484375 0.65325 Q 6.1410146484375 0.618 6.1995146484375 0.618 Q 6.2415146484375 0.618 6.2730146484375 0.6345000000000001 Q 6.3120146484375 0.657 6.3120146484375 0.7110000000000001 Q 6.3120146484375 0.75 6.2850146484375 0.79725 Q 6.2580146484375 0.8445 6.1920146484375 0.888 Q 6.1080146484375 0.9405 6.0502646484375 0.9592499999999999 Q 5.9925146484375 0.978 5.9580146484375 0.981 Q 5.9475146484375 0.9975 5.9362646484375 1.03125 Q 5.9250146484375 1.065 5.9167646484375 1.10175 Q 5.9085146484375 1.1385 5.9055146484375 1.167 Q 5.9055146484375 1.173 5.9047646484375 1.17975 Q 5.9040146484375 1.1865 5.9040146484375 1.194 Q 5.9040146484375 1.296 5.9685146484375 1.296 Q 6.0030146484375 1.296 6.0472646484375 1.2705 Q 6.0915146484375 1.245 6.1342646484375 1.209 Q 6.1770146484375 1.173 6.2107646484375 1.13925 Q 6.2445146484375 1.1055 6.2580146484375 1.089 L 6.3690146484375 0.96 L 6.3990146484375 0.9255 Q 6.4065146484375 0.9165 6.4140146484375 0.9075 Q 6.4215146484375 0.8985 6.4290146484375 0.891 Q 6.4350146484375 0.8835 6.4425146484375 0.8835 Q 6.4590146484375 0.8835 6.4590146484375 0.9015 Q 6.4590146484375 0.9105 6.4500146484375005 0.9225 Q 6.4350146484375 0.9435 6.4162646484375 0.966 Q 6.3975146484375 0.9884999999999999 6.3810146484375 1.008 L 6.3300146484375 1.0695000000000001 Q 6.3000146484375 1.1055 6.2655146484375 1.14675 Q 6.2310146484375 1.188 6.1980146484375 1.2195 Q 6.0585146484375 1.3545 5.9340146484375 1.3545 M 5.9820146484375 0.9390000000000001 Q 6.0120146484375 0.9315 6.0532646484375 0.9075 Q 6.0945146484375 0.8835 6.1327646484375 0.8565 Q 6.1710146484375 0.8295 6.1920146484375 0.8115 Q 6.2235146484375 0.786 6.2400146484375 0.7545 Q 6.2565146484375 0.723 6.2565146484375 0.7005 Q 6.2565146484375 0.669 6.2310146484375 0.669 Q 6.2190146484375 0.669 6.2055146484375 0.675 Q 6.1695146484375 0.6915 6.1275146484375 0.738 Q 6.0855146484375 0.7845 6.0472646484375 0.8400000000000001 Q 6.0090146484375 0.8955 5.9820146484375 0.9390000000000001 M 6.5175 1.3905 Q 6.423 1.3905 6.423 1.299 Q 6.423 1.2735 6.432 1.2405 Q 6.4455 1.188 6.47475 1.1280000000000001 Q 6.504 1.068 6.5265 1.0335 Q 6.5445 1.0065 6.5625 0.978 Q 6.5805 0.9495 6.6 0.9195 L 6.6735 0.8025 Q 6.693 0.7695000000000001 6.693 0.741 Q 6.693 0.708 6.6675 0.6915 L 6.6465 0.6779999999999999 L 6.6345 0.6705 L 6.618 0.6975 Q 6.6075 0.7155 6.597 0.7304999999999999 Q 6.5655 0.774 6.525 0.8265 Q 6.4845 0.879 6.447 0.927 Q 6.4095 0.975 6.384 1.0035 Q 6.3765 1.0110000000000001 6.369 1.0110000000000001 Q 6.3615 1.0110000000000001 6.35475 1.00425 Q 6.348 0.9975 6.348 0.99 Q 6.348 0.984 6.354 0.978 Q 6.4125 0.912 6.46725 0.843 Q 6.522 0.774 6.567 0.696 L 6.5835 0.6675 L 6.6 0.6405000000000001 Q 6.588 0.63 6.57825 0.60975 Q 6.5685 0.5895 6.5685 0.5715 Q 6.5685 0.5579999999999999 6.5745000000000005 0.5475 Q 6.5805 0.537 6.5955 0.5355 L 6.5985 0.5355 Q 6.6195 0.5355 6.633 0.5565 Q 6.6495 0.5775 6.6495 0.6345000000000001 Q 6.669 0.648 6.6885 0.6555 Q 6.708 0.663 6.7245 0.669 Q 6.7545 0.6795 6.77625 0.6930000000000001 Q 6.798 0.7065 6.798 0.744 Q 6.798 0.75 6.79725 0.75825 Q 6.7965 0.7665 6.795 0.774 Q 6.789 0.804 6.76575 0.84675 Q 6.7425 0.8895 6.7125 0.93525 Q 6.6825 0.981 6.654 1.0215 Q 6.645 1.0335 6.6375 1.04475 Q 6.63 1.056 6.6225 1.068 Q 6.4935 1.2765 6.5055 1.329 Q 6.5085 1.338 6.519 1.338 Q 6.5415 1.338 6.573 1.32 Q 6.618 1.2945 6.657 1.26375 Q 6.696 1.233 6.7379999999999995 1.1895 Q 6.768 1.161 6.816 1.1055 Q 6.864 1.05 6.9105 0.9975 Q 6.918 0.987 6.92625 0.978 Q 6.9345 0.969 6.942 0.96 Q 6.954 0.942 6.9719999999999995 0.9239999999999999 L 7.002 0.891 Q 7.008 0.8835 7.0155 0.8835 Q 7.032 0.8835 7.032 0.9015 Q 7.032 0.9105 7.023 0.9225 Q 7.008 0.9435 6.98925 0.966 Q 6.9705 0.9884999999999999 6.954 1.008 Q 6.939 1.026 6.92175 1.0455 Q 6.9045 1.065 6.888 1.086 Q 6.837 1.146 6.783 1.20825 Q 6.729 1.2705 6.681 1.314 Q 6.6465 1.344 6.60825 1.36725 Q 6.57 1.3905 6.5175 1.3905" fill="#ffffff" fill-rule="nonzero"></path></g><g></g><g clip-path="url(#SvgjsClipPath1002)"><g clip-path="url(#SvgjsClipPath1000b3d101cb-edc3-49cd-a0ba-7f85d791fd4d)"><path d=" M 5.509937780815534 -3.9936825059237706 L 4.6565425658437585 -4.217083572321599 C 4.643743167045677 -4.220348832995443 4.630565014064549 -4.213319204245996 4.626148071701424 -4.200870222077918 C 4.621731129338292 -4.1884212399098395 4.627531844036355 -4.174657842606092 4.639527017078979 -4.169125902572265 L 5.390986006066095 -3.826877772494315 C 5.452488347308897 -3.799792466675984 5.491854888973295 -3.738578524925588 5.490985077268306 -3.6713818345516045 L 5.490985077268306 -2.6102922135802444 C 5.490993371759249 -2.5100424735351616 5.480801362958795 -2.4100520257524063 5.460566511629944 -2.311865666011401 C 5.316117591501079 -1.6093067463995379 4.740101999162462 -1.1322431145699108 4.1068618074395316 -0.8293663465569203 C 3.806655171694239 -0.6856504039128977 3.387496761199512 -1.0262231568816986 3.8107912589324506 -1.4230257540762494 C 3.969847373232098 -1.5721343167903372 4.1912065737781505 -1.7181539029594353 4.310577192804882 -1.880037216130769 C 4.3871546921726186 -1.9808943693124386 4.42340422467783 -2.1066664342043655 4.412251641116244 -2.232808808675548 L 4.15372001096099 -4.462002763465033 C 4.14911272391084 -4.513625320640628 4.051469651768363 -4.511007543907587 4.051260229629718 -4.459437342266652 L 4.081207595455723 -2.5106596311206544 C 4.074010852382363 -2.4587444867423196 4.026881679795663 -2.421931340619507 3.974768793490219 -2.4275190420792314 L 3.9532506687446163 -2.4275190420792314 C 3.90171910973618 -2.4221478358106143 3.854988297919861 -2.458023852756209 3.846864222313784 -2.509193676150152 L 3.7496399944485854 -4.459646764405296 C 3.7477551952008015 -4.5126305654820715 3.647284924186633 -4.5126305654820715 3.645400124938843 -4.459646764405296 L 3.5854006822175184 -2.509193676150152 C 3.577326071379778 -2.4580170868065365 3.5305944796929776 -2.4221228066335136 3.4790665913213394 -2.4275190420792327 L 3.4685954843891733 -2.4275190420792327 C 3.4170333856450648 -2.4221158216500887 3.370254021320997 -2.4579938001877246 3.362104326889009 -2.509193676150152 L 3.3021048841676848 -4.459646764405296 C 3.3003771515238736 -4.5126305654820715 3.199802169440392 -4.5126305654820715 3.198022081261921 -4.459646764405296 L 3.100745497862069 -2.509193676150152 C 3.0926214222559922 -2.458023852756209 3.045890610439673 -2.4221478358106143 2.994359051431231 -2.4275190420792327 L 2.972840926685628 -2.4275190420792327 C 2.920730958907975 -2.4219046291696347 2.8735998135749528 -2.458737433691703 2.8664544802547898 -2.5106596311206544 L 2.8962971350114692 -4.459437342266652 C 2.8962971350114692 -4.511007543907587 2.798549351799673 -4.513625320640628 2.7939420647495163 -4.462002763465033 L 2.535410434594262 -2.232808808675548 C 2.5242123731116104 -2.1066701864331447 2.560446160383381 -1.9808879820863279 2.637032527370965 -1.880037216130769 C 2.756298435328371 -1.7181539029594335 2.977814702478409 -1.5721343167903354 3.1368184612433962 -1.4230257540762494 C 3.5601653145109946 -1.0262231568816986 3.141006904016268 -0.6856504039128977 2.8406432016669894 -0.8293663465569203 C 2.207403009944059 -1.1322431145699108 1.63154448420942 -1.6094638130035204 1.4870955640801509 -2.3118656660134254 C 1.4668607127514393 -2.4100520257544606 1.4566687039511252 -2.51004247353723 1.456676998442201 -2.6102922135802444 L 1.456676998442201 -3.6713818345516045 C 1.4557981480261437 -3.738566066394515 1.495141864518056 -3.799776562979624 1.5566237141097528 -3.826877772494315 L 2.3081350586315335 -4.169125902572265 C 2.320289428537463 -4.174595688795632 2.3261970854745453 -4.188489773241898 2.321703834410499 -4.201037998774414 C 2.317210583346453 -4.2135862243069315 2.303826207657172 -4.22057224466865 2.2909624432627753 -4.217083572321599 L 1.437567228290999 -3.9936825059237706 C 1.3243086897881184 -3.965068557306574 1.245317847837627 -3.8626962531029365 1.2463648157095846 -3.7458837603739874 L 1.2463648157095846 -2.561182722068371 C 1.2463688954457903 -2.4462589411288898 1.2576266984714288 -2.3316117196589468 1.2799770689609018 -2.218882236460555 C 1.4832212545152508 -1.1923472683605612 2.4655681513567016 -0.5758608477291034 3.3918422705763818 -0.26397892775444554 C 3.444767050213602 -0.24532986172208915 3.5024761812196457 -0.24532986172208915 3.5554009608568657 -0.26397892775444554 C 4.481727435611205 -0.5758608477291034 5.464021976917996 -1.1923472683605612 5.667318518006056 -2.2188822364557614 C 5.68960004554388 -2.331621020001534 5.7008398180307385 -2.446263192418197 5.700878415723656 -2.561182722068371 L 5.700878415723656 -3.7458837603739874 C 5.701955189498328 -3.8626201124879858 5.623092278172635 -3.964966742404221 5.509937780815534 -3.993682505923769 Z" fill="#e5e5c4" transform="matrix(1,0,0,1,0,0)" fill-rule="evenodd"></path></g><g clip-path="url(#SvgjsClipPath1000b3d101cb-edc3-49cd-a0ba-7f85d791fd4d)"><path d=" M 4.602773431747062 -4.828491506090954 C 3.8928120526224155 -5.19525449220645 3.0491432698100605 -5.19525449220645 2.339181890685407 -4.8284915060909555 C 2.229601756640252 -4.771685750983936 2.320857453554102 -4.599017197672466 2.4295998990446814 -4.655718241710162 C 3.0829503701885415 -4.992815745323336 3.8590573077785817 -4.992815745323336 4.512407778922442 -4.655718241710162 C 4.621254935482341 -4.598860131068485 4.7123535657922115 -4.771528684379954 4.602773431747062 -4.828491506090954 Z M 5.27292427540589 -5.580421694890019 C 5.229306685400476 -5.653914515356954 5.1997129789343735 -5.734866705810118 5.185647599126252 -5.819162932943474 C 5.182861790424377 -5.831542167582142 5.17480442551968 -5.842085381150324 5.163591178300802 -5.848024174560681 C 5.152377931081924 -5.853962967971037 5.139129106597066 -5.854704001925152 5.1273235335140726 -5.850052698393374 C 5.049638799464136 -5.814222138812694 4.965962991102618 -5.793165591238586 4.880571898657511 -5.787959034285612 C 4.868790496127635 -5.787725491171705 4.85820384466801 -5.780708519876696 4.853399376168531 -5.76994873036228 C 4.849139009263885 -5.758984122278477 4.851361550870667 -5.746558094204181 4.859158484981222 -5.73775007654586 C 4.913624230351692 -5.685373012720355 4.924818261057197 -5.602372312179174 4.886173940866216 -5.537437800933463 C 4.8639271712348116 -5.494155529599848 4.829753807204358 -5.4581472321472395 4.787693180169176 -5.433669131235669 C 4.7076050049473706 -5.392443206313634 4.613762043740932 -5.387227499837876 4.529598648565154 -5.4193244717903735 C 4.445435253389368 -5.45142144374287 4.378896294331337 -5.517801198860734 4.346597800651542 -5.601887464100966 C 4.33154203289624 -5.648144630382784 4.330070235746334 -5.697749645434978 4.342357002344024 -5.744818073725072 C 4.356609539447938 -5.819119788752592 4.42030840850825 -5.873718819375713 4.495915785504273 -5.87643988786244 C 4.507631957080707 -5.87769565739153 4.5176083239202836 -5.885518266827861 4.521622353022748 -5.896596768706866 C 4.525249333245494 -5.907784451218097 4.522016842312395 -5.920059733242523 4.513350178546343 -5.928010089503372 C 4.453097887834008 -5.988830118809941 4.40465205851358 -6.060300587422637 4.370471924456886 -6.1387934720479365 C 4.3647590361916855 -6.150124533107981 4.354373414523914 -6.15838789336471 4.3420484536330335 -6.161408717112477 C 4.32972349274214 -6.164429540860244 4.316693831703203 -6.16190522048261 4.30638875003201 -6.154500132446192 C 4.239674111887018 -6.100980134030342 4.163604410904616 -6.060309029024348 4.082045284010286 -6.034553602538195 C 4.070611299056287 -6.031509340980334 4.062000401106208 -6.022080305457809 4.060003603918067 -6.010417701059545 C 4.0585179688707305 -5.998787074106749 4.063700089496942 -5.9873094866260255 4.0734066207912445 -5.9807321129068445 C 4.1388891974506326 -5.94301889129072 4.169791683294439 -5.8651879988742905 4.148013257682947 -5.7928280990090695 C 4.136886670831883 -5.745491040199018 4.112474374072675 -5.702315423088433 4.077647419098769 -5.668378993120239 C 4.009961558376585 -5.608948448480496 3.9201714280052484 -5.581151301781844 3.8307460745764645 -5.591943499983106 C 3.74132072114768 -5.602735698184368 3.6607215767959698 -5.651096082865015 3.609117739418857 -5.724922970553951 C 3.583455460844027 -5.766251529291573 3.5700731326469617 -5.814024806749478 3.5705317103738223 -5.862670382246636 C 3.5666430834025924 -5.938126183397993 3.6151892581238427 -6.006338003707533 3.6877557524794584 -6.027380894289657 C 3.698741988985808 -6.03155609421154 3.7064786179569316 -6.041514731503352 3.7078079222545615 -6.053192172877454 C 3.7085697539827165 -6.064894537587699 3.702431004909769 -6.0759647484159265 3.692101261856309 -6.081516517128971 C 3.619237795191851 -6.126039423029945 3.5553180937282 -6.183762464546146 3.5036213370772606 -6.251724360311381 C 3.495454344683141 -6.261479076312346 3.4833857231421645 -6.267114813724222 3.4706635280082603 -6.267114813724222 C 3.4579413328743565 -6.267114813724222 3.4458727113333794 -6.261479076312346 3.43770571893926 -6.251724360311381 C 3.3860089622883205 -6.183762464546148 3.3220892608246695 -6.126039423029945 3.2492257941602114 -6.081516517128971 C 3.2388669235932004 -6.0759943117133455 3.232716798742764 -6.064903586566396 3.233519133761959 -6.053192172877454 C 3.234857737358832 -6.041502166759134 3.242616999123947 -6.031540406211732 3.2536236590717285 -6.027380894289657 C 3.3261248839702806 -6.006265021472287 3.374604949742675 -5.938085188249238 3.3707429901080386 -5.8626703822466375 C 3.371217271554323 -5.814029955331425 3.357853207955575 -5.766257059504924 3.3322093165976505 -5.724922970553951 C 3.2805953143640534 -5.651093320091033 3.1999872853043057 -5.602732439282455 3.1105537585323306 -5.591940460632875 C 3.0211202317603556 -5.581148481983297 2.9313220926141996 -5.608946383835185 2.863627281383085 -5.668378993120237 C 2.828756596014595 -5.702265373968206 2.8043669043838007 -5.74546529722185 2.793366153868221 -5.7928280990090695 C 2.771414716023307 -5.865182479594689 2.8023338575972807 -5.943110007058874 2.86792043522527 -5.9807321129068445 C 2.8776167870754623 -5.987314422543434 2.882780378771665 -5.99879582055028 2.881271096563788 -6.010417701059545 C 2.879307240339068 -6.022078345298022 2.8707096234830467 -6.031515253323326 2.859281772006228 -6.034553602538195 C 2.7777169673608553 -6.060295539352399 2.7016448795186054 -6.100967920506796 2.634938305984504 -6.154500132446192 C 2.6245936865247907 -6.16189186349296 2.6115410588879784 -6.1644076716422 2.5991901633297854 -6.161390351880425 C 2.586839267771592 -6.158373032118651 2.5764169045297827 -6.150122291344339 2.5706457094209947 -6.138793472047938 C 2.536580703477833 -6.060288311180408 2.48820044844413 -5.988809813284744 2.4279768774701838 -5.928010089503374 C 2.4192747495551825 -5.92008117646244 2.416036297076417 -5.907783255656993 2.4197047029937853 -5.896596768706866 C 2.423695015615924 -5.885479492758465 2.4337130623199243 -5.877640167593747 2.445463626046913 -5.87643988786244 C 2.5210311124468774 -5.8735897720329975 2.5846757901048774 -5.819055784428295 2.599074764741829 -5.744818073725074 C 2.6112083997333193 -5.697723246830608 2.6096829836070174 -5.648147222725641 2.5946768998303242 -5.601887464100966 C 2.562382043035833 -5.517772448568843 2.495825144566635 -5.451369944774579 2.4116353533283705 -5.4192705263280905 C 2.3274455620900993 -5.387171107881603 2.2335748953699843 -5.392406675998492 2.1534768092433776 -5.433669131235667 C 2.11156146946711 -5.458234016121525 2.077468867344338 -5.494178293119979 2.0551531151503113 -5.537333089864142 C 2.0164994324885486 -5.602292288710172 2.0276690548467533 -5.6853162001417195 2.082116215500633 -5.73775007654586 C 2.0899311224351655 -5.746547369279985 2.092174071643023 -5.758974520296481 2.0879276798479895 -5.76994873036228 C 2.0830645365134686 -5.780682351039633 2.072483468296072 -5.7876821346296 2.0607028018243563 -5.787959034285611 C 1.9753778107624314 -5.793158589445749 1.891769379667231 -5.8142160537224346 1.8141605891064332 -5.850052698393376 C 1.8024109737106397 -5.855145446980754 1.7889491803873354 -5.854408345905415 1.777825848051807 -5.848063188076261 C 1.7661880358607691 -5.842598425920039 1.7579296225748515 -5.831821489433453 1.7556794568902743 -5.819162932943477 C 1.741582566602007 -5.734867217093353 1.711972040397421 -5.653917577109587 1.668350425075978 -5.580421694890019 C 1.6617965826272407 -5.570567570795416 1.661612303436336 -5.557790880225626 1.6678792252640335 -5.547751841261652 C 1.6745615075497864 -5.538125792888833 1.6860461129805149 -5.533019281159526 1.6976695244860536 -5.534505890992459 C 1.7716619362167205 -5.549920729801079 1.8465275846314304 -5.512357779901231 1.878400830135289 -5.443826104959872 L 2.1333722839336082 -4.995872150401677 C 2.1580458863332157 -4.952815281088425 2.212347910698192 -4.9369733361608255 2.256303079317275 -4.960008609158997 C 3.0169273962225196 -5.357843493684931 3.9241902376553495 -5.357843493684931 4.6848145545606 -4.960008609158997 C 4.728786947604019 -4.937054041161964 4.783038878341481 -4.952934346409785 4.807692994409601 -4.995976861471 L 5.06271680374258 -5.443930816029195 C 5.094658184503224 -5.51245040992622 5.169536499744959 -5.549997961170772 5.243552820461142 -5.534610602061782 C 5.255176231966674 -5.533123992228849 5.266660837397408 -5.538230503958156 5.273343119683155 -5.547856552330973 C 5.279660060088403 -5.55780930765255 5.279598704644702 -5.570530336314278 5.273186053079188 -5.580421694890019 Z" fill="#bfbe5f" transform="matrix(1,0,0,1,0,0)" fill-rule="evenodd"></path></g></g></g><defs><clipPath id="SvgjsClipPath1002"><path d=" M 1.2467313044521968 -6.2671692430363315 h 4.454565955548731 v 6.0171692430363315 h -4.454565955548731 Z"></path></clipPath><clipPath id="SvgjsClipPath1000b3d101cb-edc3-49cd-a0ba-7f85d791fd4d"><path d=" M 1.2467313044521968 -6.2671692430363315 L 5.701297260000928 -6.2671692430363315 L 5.701297260000928 -0.25 L 1.2467313044521968 -0.25 Z"></path></clipPath></defs></svg>